<?xml version="1.0" encoding="UTF-8" standalone="no"?>
<!DOCTYPE svg PUBLIC "-//W3C//DTD SVG 1.1//EN"
 "http://www.w3.org/Graphics/SVG/1.1/DTD/svg11.dtd">
<!-- Generated by graphviz version 9.0.0 (20230911.1827)
 -->
<!-- Title: G Pages: 1 -->
<svg width="234pt" height="681pt"
 viewBox="0.00 0.00 234.00 680.78" xmlns="http://www.w3.org/2000/svg" xmlns:xlink="http://www.w3.org/1999/xlink">
<g id="graph0" class="graph" transform="scale(1 1) rotate(0) translate(4 676.78)">
<title>G</title>
<g id="clust1" class="cluster">
<title>cluster_cut</title>
<path fill="none" stroke="#c98cec" d="M20,-445.52C20,-445.52 206,-445.52 206,-445.52 212,-445.52 218,-451.52 218,-457.52 218,-457.52 218,-652.78 218,-652.78 218,-658.78 212,-664.78 206,-664.78 206,-664.78 20,-664.78 20,-664.78 14,-664.78 8,-658.78 8,-652.78 8,-652.78 8,-457.52 8,-457.52 8,-451.52 14,-445.52 20,-445.52"/>
</g>
<g id="clust2" class="cluster">
<title>cluster_build</title>
<path fill="none" stroke="#c98cec" d="M20,-213.26C20,-213.26 206,-213.26 206,-213.26 212,-213.26 218,-219.26 218,-225.26 218,-225.26 218,-420.52 218,-420.52 218,-426.52 212,-432.52 206,-432.52 206,-432.52 20,-432.52 20,-432.52 14,-432.52 8,-426.52 8,-420.52 8,-420.52 8,-225.26 8,-225.26 8,-219.26 14,-213.26 20,-213.26"/>
</g>
<g id="clust3" class="cluster">
<title>cluster_announce</title>
<path fill="none" stroke="#c98cec" d="M20,-8C20,-8 206,-8 206,-8 212,-8 218,-14 218,-20 218,-20 218,-188.26 218,-188.26 218,-194.26 212,-200.26 206,-200.26 206,-200.26 20,-200.26 20,-200.26 14,-200.26 8,-194.26 8,-188.26 8,-188.26 8,-20 8,-20 8,-14 14,-8 20,-8"/>
</g>
<!-- h1 -->
<g id="node1" class="node">
<title>h1</title>
<path fill="#f3e9fb" stroke="#c98cec" d="M198.2,-656.78C198.2,-656.78 27.8,-656.78 27.8,-656.78 21.8,-656.78 15.8,-650.78 15.8,-644.78 15.8,-644.78 15.8,-629.36 15.8,-629.36 15.8,-623.36 21.8,-617.36 27.8,-617.36 27.8,-617.36 198.2,-617.36 198.2,-617.36 204.2,-617.36 210.2,-623.36 210.2,-629.36 210.2,-629.36 210.2,-644.78 210.2,-644.78 210.2,-650.78 204.2,-656.78 198.2,-656.78"/>
<text text-anchor="start" x="72.88" y="-634.37" font-family="Inter" font-weight="bold" font-size="11.00" fill="#6c2eb7">Stage 1 · Cut</text>
</g>
<!-- cp -->
<g id="node2" class="node">
<title>cp</title>
<path fill="#ffffff" stroke="#c98cec" d="M198.2,-588.36C198.2,-588.36 27.8,-588.36 27.8,-588.36 21.8,-588.36 15.8,-582.36 15.8,-576.36 15.8,-576.36 15.8,-560.94 15.8,-560.94 15.8,-554.94 21.8,-548.94 27.8,-548.94 27.8,-548.94 198.2,-548.94 198.2,-548.94 204.2,-548.94 210.2,-554.94 210.2,-560.94 210.2,-560.94 210.2,-576.36 210.2,-576.36 210.2,-582.36 204.2,-588.36 198.2,-588.36"/>
<text text-anchor="middle" x="113" y="-564.95" font-family="Inter" font-size="11.00">ws:checkpoint&#45;publish</text>
</g>
<!-- h1&#45;&gt;cp -->
<g id="edge1" class="edge">
<title>h1&#45;&gt;cp</title>
<path fill="none" stroke="#7a6fa0" d="M113,-617.21C113,-611.93 113,-606.05 113,-600.27"/>
<polygon fill="#7a6fa0" stroke="#7a6fa0" points="116.5,-600.3 113,-590.3 109.5,-600.3 116.5,-600.3"/>
</g>
<!-- tag -->
<g id="node3" class="node">
<title>tag</title>
<path fill="#ffffff" stroke="#c98cec" d="M198.2,-519.94C198.2,-519.94 27.8,-519.94 27.8,-519.94 21.8,-519.94 15.8,-513.94 15.8,-507.94 15.8,-507.94 15.8,-465.52 15.8,-465.52 15.8,-459.52 21.8,-453.52 27.8,-453.52 27.8,-453.52 198.2,-453.52 198.2,-453.52 204.2,-453.52 210.2,-459.52 210.2,-465.52 210.2,-465.52 210.2,-507.94 210.2,-507.94 210.2,-513.94 204.2,-519.94 198.2,-519.94"/>
<text text-anchor="middle" x="113" y="-496.53" font-family="Inter" font-size="11.00">checkpoint/&lt;name&gt;</text>
<text text-anchor="middle" x="113" y="-483.03" font-family="Inter" font-size="11.00">git tag on every</text>
<text text-anchor="middle" x="113" y="-469.53" font-family="Inter" font-size="11.00">subproject + aggregator</text>
</g>
<!-- cp&#45;&gt;tag -->
<g id="edge2" class="edge">
<title>cp&#45;&gt;tag</title>
<path fill="none" stroke="#7a6fa0" d="M113,-548.71C113,-543.53 113,-537.7 113,-531.75"/>
<polygon fill="#7a6fa0" stroke="#7a6fa0" points="116.5,-531.8 113,-521.8 109.5,-531.8 116.5,-531.8"/>
</g>
<!-- h2 -->
<g id="node4" class="node">
<title>h2</title>
<path fill="#f3e9fb" stroke="#c98cec" d="M198.2,-424.52C198.2,-424.52 27.8,-424.52 27.8,-424.52 21.8,-424.52 15.8,-418.52 15.8,-412.52 15.8,-412.52 15.8,-397.1 15.8,-397.1 15.8,-391.1 21.8,-385.1 27.8,-385.1 27.8,-385.1 198.2,-385.1 198.2,-385.1 204.2,-385.1 210.2,-391.1 210.2,-397.1 210.2,-397.1 210.2,-412.52 210.2,-412.52 210.2,-418.52 204.2,-424.52 198.2,-424.52"/>
<text text-anchor="start" x="68" y="-402.11" font-family="Inter" font-weight="bold" font-size="11.00" fill="#6c2eb7">Stage 2 · Build</text>
</g>
<!-- tag&#45;&gt;h2 -->
<g id="edge7" class="edge">
<title>tag&#45;&gt;h2</title>
<path fill="none" stroke="#7a6fa0" d="M113,-453.22C113,-447.48 113,-441.51 113,-435.84"/>
<polygon fill="#7a6fa0" stroke="#7a6fa0" points="116.5,-436.26 113,-426.26 109.5,-436.26 116.5,-436.26"/>
</g>
<!-- ci -->
<g id="node5" class="node">
<title>ci</title>
<path fill="#ffffff" stroke="#c98cec" d="M198.2,-356.1C198.2,-356.1 27.8,-356.1 27.8,-356.1 21.8,-356.1 15.8,-350.1 15.8,-344.1 15.8,-344.1 15.8,-315.18 15.8,-315.18 15.8,-309.18 21.8,-303.18 27.8,-303.18 27.8,-303.18 198.2,-303.18 198.2,-303.18 204.2,-303.18 210.2,-309.18 210.2,-315.18 210.2,-315.18 210.2,-344.1 210.2,-344.1 210.2,-350.1 204.2,-356.1 198.2,-356.1"/>
<text text-anchor="middle" x="113" y="-332.69" font-family="Inter" font-size="11.00">TeamCity IkeKometWs</text>
<text text-anchor="middle" x="113" y="-319.19" font-family="Inter" font-size="11.00">installer builds</text>
</g>
<!-- h2&#45;&gt;ci -->
<g id="edge3" class="edge">
<title>h2&#45;&gt;ci</title>
<path fill="none" stroke="#7a6fa0" d="M113,-384.97C113,-379.7 113,-373.79 113,-367.86"/>
<polygon fill="#7a6fa0" stroke="#7a6fa0" points="116.5,-368.1 113,-358.1 109.5,-368.1 116.5,-368.1"/>
</g>
<!-- inst -->
<g id="node6" class="node">
<title>inst</title>
<path fill="#ffffff" stroke="#c98cec" d="M198.2,-274.18C198.2,-274.18 27.8,-274.18 27.8,-274.18 21.8,-274.18 15.8,-268.18 15.8,-262.18 15.8,-262.18 15.8,-233.26 15.8,-233.26 15.8,-227.26 21.8,-221.26 27.8,-221.26 27.8,-221.26 198.2,-221.26 198.2,-221.26 204.2,-221.26 210.2,-227.26 210.2,-233.26 210.2,-233.26 210.2,-262.18 210.2,-262.18 210.2,-268.18 204.2,-274.18 198.2,-274.18"/>
<text text-anchor="middle" x="113" y="-250.77" font-family="Inter" font-size="11.00">signed .pkg / .msi</text>
<text text-anchor="middle" x="113" y="-237.27" font-family="Inter" font-size="11.00">jpackage + jlink + notarize</text>
</g>
<!-- ci&#45;&gt;inst -->
<g id="edge4" class="edge">
<title>ci&#45;&gt;inst</title>
<path fill="none" stroke="#7a6fa0" d="M113,-302.91C113,-297.55 113,-291.79 113,-286.1"/>
<polygon fill="#7a6fa0" stroke="#7a6fa0" points="116.5,-286.19 113,-276.19 109.5,-286.19 116.5,-286.19"/>
</g>
<!-- h3 -->
<g id="node7" class="node">
<title>h3</title>
<path fill="#f3e9fb" stroke="#c98cec" d="M198.2,-192.26C198.2,-192.26 27.8,-192.26 27.8,-192.26 21.8,-192.26 15.8,-186.26 15.8,-180.26 15.8,-180.26 15.8,-164.84 15.8,-164.84 15.8,-158.84 21.8,-152.84 27.8,-152.84 27.8,-152.84 198.2,-152.84 198.2,-152.84 204.2,-152.84 210.2,-158.84 210.2,-164.84 210.2,-164.84 210.2,-180.26 210.2,-180.26 210.2,-186.26 204.2,-192.26 198.2,-192.26"/>
<text text-anchor="start" x="53.38" y="-169.85" font-family="Inter" font-weight="bold" font-size="11.00" fill="#6c2eb7">Stage 3 · Announce</text>
</g>
<!-- inst&#45;&gt;h3 -->
<g id="edge8" class="edge">
<title>inst&#45;&gt;h3</title>
<path fill="none" stroke="#7a6fa0" d="M113,-221.13C113,-215.55 113,-209.59 113,-203.85"/>
<polygon fill="#7a6fa0" stroke="#7a6fa0" points="116.5,-204.07 113,-194.07 109.5,-204.07 116.5,-204.07"/>
</g>
<!-- rel -->
<g id="node8" class="node">
<title>rel</title>
<path fill="#ffffff" stroke="#c98cec" d="M198.2,-123.84C198.2,-123.84 27.8,-123.84 27.8,-123.84 21.8,-123.84 15.8,-117.84 15.8,-111.84 15.8,-111.84 15.8,-96.42 15.8,-96.42 15.8,-90.42 21.8,-84.42 27.8,-84.42 27.8,-84.42 198.2,-84.42 198.2,-84.42 204.2,-84.42 210.2,-90.42 210.2,-96.42 210.2,-96.42 210.2,-111.84 210.2,-111.84 210.2,-117.84 204.2,-123.84 198.2,-123.84"/>
<text text-anchor="middle" x="113" y="-100.43" font-family="Inter" font-size="11.00">GitHub pre&#45;release</text>
</g>
<!-- h3&#45;&gt;rel -->
<g id="edge5" class="edge">
<title>h3&#45;&gt;rel</title>
<path fill="none" stroke="#7a6fa0" d="M113,-152.69C113,-147.41 113,-141.53 113,-135.75"/>
<polygon fill="#7a6fa0" stroke="#7a6fa0" points="116.5,-135.78 113,-125.78 109.5,-135.78 116.5,-135.78"/>
</g>
<!-- zulip -->
<g id="node9" class="node">
<title>zulip</title>
<path fill="#ffffff" stroke="#c98cec" d="M198.2,-55.42C198.2,-55.42 27.8,-55.42 27.8,-55.42 21.8,-55.42 15.8,-49.42 15.8,-43.42 15.8,-43.42 15.8,-28 15.8,-28 15.8,-22 21.8,-16 27.8,-16 27.8,-16 198.2,-16 198.2,-16 204.2,-16 210.2,-22 210.2,-28 210.2,-28 210.2,-43.42 210.2,-43.42 210.2,-49.42 204.2,-55.42 198.2,-55.42"/>
<text text-anchor="middle" x="113" y="-32.01" font-family="Inter" font-size="11.00">Zulip announcement</text>
</g>
<!-- rel&#45;&gt;zulip -->
<g id="edge6" class="edge">
<title>rel&#45;&gt;zulip</title>
<path fill="none" stroke="#7a6fa0" d="M113,-84.27C113,-78.99 113,-73.11 113,-67.33"/>
<polygon fill="#7a6fa0" stroke="#7a6fa0" points="116.5,-67.36 113,-57.36 109.5,-67.36 116.5,-67.36"/>
</g>
</g>
</svg>
