<?xml version="1.0" encoding="UTF-8" standalone="no"?>
<!DOCTYPE svg PUBLIC "-//W3C//DTD SVG 1.1//EN"
 "http://www.w3.org/Graphics/SVG/1.1/DTD/svg11.dtd">
<!-- Generated by graphviz version 9.0.0 (20230911.1827)
 -->
<!-- Title: foundation Pages: 1 -->
<svg width="404pt" height="396pt"
 viewBox="0.00 0.00 403.50 395.75" xmlns="http://www.w3.org/2000/svg" xmlns:xlink="http://www.w3.org/1999/xlink">
<g id="graph0" class="graph" transform="scale(1 1) rotate(0) translate(4 391.75)">
<title>foundation</title>
<g id="clust1" class="cluster">
<title>cluster_vme</title>
<polygon fill="none" stroke="#6a1b9a" stroke-dasharray="1,5" points="161.5,-294.25 161.5,-379.75 387.5,-379.75 387.5,-294.25 161.5,-294.25"/>
<text text-anchor="middle" x="274.5" y="-366.25" font-family="Times,serif" font-size="10.00">registered at every consumer build</text>
<text text-anchor="middle" x="274.5" y="-353.5" font-family="Times,serif" font-size="10.00">validates typed&#45;marker pins + policies</text>
</g>
<!-- base -->
<g id="node1" class="node">
<title>base</title>
<path fill="#fff3e0" stroke="#e65100" d="M139.25,-338.25C139.25,-338.25 61.75,-338.25 61.75,-338.25 55.75,-338.25 49.75,-332.25 49.75,-326.25 49.75,-326.25 49.75,-314.25 49.75,-314.25 49.75,-308.25 55.75,-302.25 61.75,-302.25 61.75,-302.25 139.25,-302.25 139.25,-302.25 145.25,-302.25 151.25,-308.25 151.25,-314.25 151.25,-314.25 151.25,-326.25 151.25,-326.25 151.25,-332.25 145.25,-338.25 139.25,-338.25"/>
<text text-anchor="middle" x="100.5" y="-323.3" font-family="Helvetica,sans-Serif" font-size="11.00">ike&#45;base&#45;parent</text>
<text text-anchor="middle" x="100.5" y="-309.8" font-family="Helvetica,sans-Serif" font-size="11.00">(parent only)</text>
</g>
<!-- jsup -->
<g id="node2" class="node">
<title>jsup</title>
<path fill="#e8f5e9" stroke="#2e7d32" d="M140.75,-255C140.75,-255 60.25,-255 60.25,-255 54.25,-255 48.25,-249 48.25,-243 48.25,-243 48.25,-231 48.25,-231 48.25,-225 54.25,-219 60.25,-219 60.25,-219 140.75,-219 140.75,-219 146.75,-219 152.75,-225 152.75,-231 152.75,-231 152.75,-243 152.75,-243 152.75,-249 146.75,-255 140.75,-255"/>
<text text-anchor="middle" x="100.5" y="-240.05" font-family="Helvetica,sans-Serif" font-size="11.00">ike&#45;java&#45;support</text>
<text text-anchor="middle" x="100.5" y="-226.55" font-family="Helvetica,sans-Serif" font-size="11.00">(value types)</text>
</g>
<!-- base&#45;&gt;jsup -->
<g id="edge1" class="edge">
<title>base&#45;&gt;jsup</title>
<path fill="none" stroke="#555555" stroke-dasharray="5,2" d="M100.5,-302.02C100.5,-291.75 100.5,-278.45 100.5,-266.64"/>
<polygon fill="#555555" stroke="#555555" points="104,-267 100.5,-257 97,-267 104,-267"/>
<text text-anchor="middle" x="117" y="-275.7" font-family="Helvetica,sans-Serif" font-size="9.00"> parent</text>
</g>
<!-- tool -->
<g id="node3" class="node">
<title>tool</title>
<path fill="#e8f5e9" stroke="#2e7d32" d="M61,-182C61,-182 12,-182 12,-182 6,-182 0,-176 0,-170 0,-170 0,-158 0,-158 0,-152 6,-146 12,-146 12,-146 61,-146 61,-146 67,-146 73,-152 73,-158 73,-158 73,-170 73,-170 73,-176 67,-182 61,-182"/>
<text text-anchor="middle" x="36.5" y="-160.3" font-family="Helvetica,sans-Serif" font-size="11.00">ike&#45;tooling</text>
</g>
<!-- jsup&#45;&gt;tool -->
<g id="edge2" class="edge">
<title>jsup&#45;&gt;tool</title>
<path fill="none" stroke="#555555" d="M85.01,-218.81C77.3,-210.27 67.84,-199.77 59.33,-190.32"/>
<polygon fill="#555555" stroke="#555555" points="62.16,-188.24 52.86,-183.15 56.96,-192.92 62.16,-188.24"/>
</g>
<!-- wsext -->
<g id="node4" class="node">
<title>wsext</title>
<path fill="#e8f5e9" stroke="#2e7d32" d="M230.38,-182C230.38,-182 102.62,-182 102.62,-182 96.62,-182 90.62,-176 90.62,-170 90.62,-170 90.62,-158 90.62,-158 90.62,-152 96.62,-146 102.62,-146 102.62,-146 230.38,-146 230.38,-146 236.38,-146 242.38,-152 242.38,-158 242.38,-158 242.38,-170 242.38,-170 242.38,-176 236.38,-182 230.38,-182"/>
<text text-anchor="middle" x="166.5" y="-160.3" font-family="Helvetica,sans-Serif" font-size="11.00">ike&#45;workspace&#45;extension</text>
</g>
<!-- jsup&#45;&gt;wsext -->
<g id="edge3" class="edge">
<title>jsup&#45;&gt;wsext</title>
<path fill="none" stroke="#555555" d="M116.48,-218.81C124.42,-210.27 134.18,-199.77 142.96,-190.32"/>
<polygon fill="#555555" stroke="#555555" points="145.39,-192.84 149.64,-183.14 140.27,-188.08 145.39,-192.84"/>
</g>
<!-- docs -->
<g id="node5" class="node">
<title>docs</title>
<path fill="#e8f5e9" stroke="#2e7d32" d="M108,-109C108,-109 71,-109 71,-109 65,-109 59,-103 59,-97 59,-97 59,-85 59,-85 59,-79 65,-73 71,-73 71,-73 108,-73 108,-73 114,-73 120,-79 120,-85 120,-85 120,-97 120,-97 120,-103 114,-109 108,-109"/>
<text text-anchor="middle" x="89.5" y="-87.3" font-family="Helvetica,sans-Serif" font-size="11.00">ike&#45;docs</text>
</g>
<!-- tool&#45;&gt;docs -->
<g id="edge4" class="edge">
<title>tool&#45;&gt;docs</title>
<path fill="none" stroke="#555555" d="M49.33,-145.81C55.51,-137.53 63.07,-127.41 69.95,-118.19"/>
<polygon fill="#555555" stroke="#555555" points="72.71,-120.35 75.88,-110.24 67.1,-116.16 72.71,-120.35"/>
</g>
<!-- plat -->
<g id="node6" class="node">
<title>plat</title>
<path fill="#e8f5e9" stroke="#2e7d32" d="M156.5,-36C156.5,-36 98.5,-36 98.5,-36 92.5,-36 86.5,-30 86.5,-24 86.5,-24 86.5,-12 86.5,-12 86.5,-6 92.5,0 98.5,0 98.5,0 156.5,0 156.5,0 162.5,0 168.5,-6 168.5,-12 168.5,-12 168.5,-24 168.5,-24 168.5,-30 162.5,-36 156.5,-36"/>
<text text-anchor="middle" x="127.5" y="-14.3" font-family="Helvetica,sans-Serif" font-size="11.00">ike&#45;platform</text>
</g>
<!-- wsext&#45;&gt;plat -->
<g id="edge6" class="edge">
<title>wsext&#45;&gt;plat</title>
<path fill="none" stroke="#555555" d="M161.8,-145.63C155.18,-121.2 143.05,-76.4 135.13,-47.17"/>
<polygon fill="#555555" stroke="#555555" points="138.61,-46.63 132.62,-37.89 131.85,-48.46 138.61,-46.63"/>
</g>
<!-- docs&#45;&gt;plat -->
<g id="edge5" class="edge">
<title>docs&#45;&gt;plat</title>
<path fill="none" stroke="#555555" d="M98.7,-72.81C102.99,-64.79 108.21,-55.05 113.01,-46.07"/>
<polygon fill="#555555" stroke="#555555" points="116.04,-47.83 117.67,-37.36 109.87,-44.53 116.04,-47.83"/>
</g>
<!-- vme -->
<g id="node7" class="node">
<title>vme</title>
<path fill="#f3e5f5" stroke="#6a1b9a" d="M367.62,-338.25C367.62,-338.25 181.38,-338.25 181.38,-338.25 175.38,-338.25 169.38,-332.25 169.38,-326.25 169.38,-326.25 169.38,-314.25 169.38,-314.25 169.38,-308.25 175.38,-302.25 181.38,-302.25 181.38,-302.25 367.62,-302.25 367.62,-302.25 373.62,-302.25 379.62,-308.25 379.62,-314.25 379.62,-314.25 379.62,-326.25 379.62,-326.25 379.62,-332.25 373.62,-338.25 367.62,-338.25"/>
<text text-anchor="middle" x="274.5" y="-316.55" font-family="Helvetica,sans-Serif" font-size="11.00">ike&#45;version&#45;management&#45;extension</text>
</g>
</g>
</svg>
