<?xml version="1.0" encoding="UTF-8" standalone="no"?>
<!DOCTYPE svg PUBLIC "-//W3C//DTD SVG 1.1//EN"
 "http://www.w3.org/Graphics/SVG/1.1/DTD/svg11.dtd">
<!-- Generated by graphviz version 14.1.2 (20260124.0452)
 -->
<!-- Title: G Pages: 1 -->
<svg width="234pt" height="745pt"
 viewBox="0.00 0.00 234.00 745.00" xmlns="http://www.w3.org/2000/svg" xmlns:xlink="http://www.w3.org/1999/xlink">
<g id="graph0" class="graph" transform="scale(1 1) rotate(0) translate(4 741.28)">
<title>G</title>
<g id="clust1" class="cluster">
<title>cluster_cut</title>
<path fill="none" stroke="#c98cec" d="M20,-493.52C20,-493.52 206,-493.52 206,-493.52 212,-493.52 218,-499.52 218,-505.52 218,-505.52 218,-717.28 218,-717.28 218,-723.28 212,-729.28 206,-729.28 206,-729.28 20,-729.28 20,-729.28 14,-729.28 8,-723.28 8,-717.28 8,-717.28 8,-505.52 8,-505.52 8,-499.52 14,-493.52 20,-493.52"/>
</g>
<g id="clust2" class="cluster">
<title>cluster_deploy</title>
<path fill="none" stroke="#c98cec" d="M20,-244.76C20,-244.76 206,-244.76 206,-244.76 212,-244.76 218,-250.76 218,-256.76 218,-256.76 218,-468.52 218,-468.52 218,-474.52 212,-480.52 206,-480.52 206,-480.52 20,-480.52 20,-480.52 14,-480.52 8,-474.52 8,-468.52 8,-468.52 8,-256.76 8,-256.76 8,-250.76 14,-244.76 20,-244.76"/>
</g>
<g id="clust3" class="cluster">
<title>cluster_cascade</title>
<path fill="none" stroke="#c98cec" d="M20,-8C20,-8 206,-8 206,-8 212,-8 218,-14 218,-20 218,-20 218,-219.76 218,-219.76 218,-225.76 212,-231.76 206,-231.76 206,-231.76 20,-231.76 20,-231.76 14,-231.76 8,-225.76 8,-219.76 8,-219.76 8,-20 8,-20 8,-14 14,-8 20,-8"/>
</g>
<!-- h1 -->
<g id="node1" class="node">
<title>h1</title>
<path fill="#f3e9fb" stroke="#c98cec" d="M198.2,-721.28C198.2,-721.28 27.8,-721.28 27.8,-721.28 21.8,-721.28 15.8,-715.28 15.8,-709.28 15.8,-709.28 15.8,-695.36 15.8,-695.36 15.8,-689.36 21.8,-683.36 27.8,-683.36 27.8,-683.36 198.2,-683.36 198.2,-683.36 204.2,-683.36 210.2,-689.36 210.2,-695.36 210.2,-695.36 210.2,-709.28 210.2,-709.28 210.2,-715.28 204.2,-721.28 198.2,-721.28"/>
<text xml:space="preserve" text-anchor="start" x="59.38" y="-698.87" font-family="Inter" font-weight="bold" font-size="11.00" fill="#6c2eb7">Stage 1 · Draft &amp; Cut</text>
</g>
<!-- draft -->
<g id="node2" class="node">
<title>draft</title>
<path fill="#ffffff" stroke="#c98cec" d="M198.2,-654.36C198.2,-654.36 27.8,-654.36 27.8,-654.36 21.8,-654.36 15.8,-648.36 15.8,-642.36 15.8,-642.36 15.8,-604.44 15.8,-604.44 15.8,-598.44 21.8,-592.44 27.8,-592.44 27.8,-592.44 198.2,-592.44 198.2,-592.44 204.2,-592.44 210.2,-598.44 210.2,-604.44 210.2,-604.44 210.2,-642.36 210.2,-642.36 210.2,-648.36 204.2,-654.36 198.2,-654.36"/>
<text xml:space="preserve" text-anchor="middle" x="113" y="-630.95" font-family="Inter" font-size="11.00">ike:release&#45;draft</text>
<text xml:space="preserve" text-anchor="middle" x="113" y="-618.95" font-family="Inter" font-size="11.00">preview: plan + gates,</text>
<text xml:space="preserve" text-anchor="middle" x="113" y="-606.95" font-family="Inter" font-size="11.00">writes nothing</text>
</g>
<!-- h1&#45;&gt;draft -->
<g id="edge1" class="edge">
<title>h1&#45;&gt;draft</title>
<path fill="none" stroke="#7a6fa0" d="M113,-683.09C113,-677.95 113,-672.13 113,-666.2"/>
<polygon fill="#7a6fa0" stroke="#7a6fa0" points="116.5,-666.34 113,-656.34 109.5,-666.34 116.5,-666.34"/>
</g>
<!-- pub -->
<g id="node3" class="node">
<title>pub</title>
<path fill="#ffffff" stroke="#c98cec" d="M198.2,-563.44C198.2,-563.44 27.8,-563.44 27.8,-563.44 21.8,-563.44 15.8,-557.44 15.8,-551.44 15.8,-551.44 15.8,-513.52 15.8,-513.52 15.8,-507.52 21.8,-501.52 27.8,-501.52 27.8,-501.52 198.2,-501.52 198.2,-501.52 204.2,-501.52 210.2,-507.52 210.2,-513.52 210.2,-513.52 210.2,-551.44 210.2,-551.44 210.2,-557.44 204.2,-563.44 198.2,-563.44"/>
<text xml:space="preserve" text-anchor="middle" x="113" y="-540.03" font-family="Inter" font-size="11.00">ike:release&#45;publish</text>
<text xml:space="preserve" text-anchor="middle" x="113" y="-528.03" font-family="Inter" font-size="11.00">gates, verify at the tag,</text>
<text xml:space="preserve" text-anchor="middle" x="113" y="-516.03" font-family="Inter" font-size="11.00">tag v&lt;N&gt;, merge, bump</text>
</g>
<!-- draft&#45;&gt;pub -->
<g id="edge2" class="edge">
<title>draft&#45;&gt;pub</title>
<path fill="none" stroke="#7a6fa0" d="M113,-592.3C113,-586.71 113,-580.78 113,-574.92"/>
<polygon fill="#7a6fa0" stroke="#7a6fa0" points="116.5,-575.37 113,-565.37 109.5,-575.37 116.5,-575.37"/>
</g>
<!-- h2 -->
<g id="node4" class="node">
<title>h2</title>
<path fill="#f3e9fb" stroke="#c98cec" d="M198.2,-472.52C198.2,-472.52 27.8,-472.52 27.8,-472.52 21.8,-472.52 15.8,-466.52 15.8,-460.52 15.8,-460.52 15.8,-446.6 15.8,-446.6 15.8,-440.6 21.8,-434.6 27.8,-434.6 27.8,-434.6 198.2,-434.6 198.2,-434.6 204.2,-434.6 210.2,-440.6 210.2,-446.6 210.2,-446.6 210.2,-460.52 210.2,-460.52 210.2,-466.52 204.2,-472.52 198.2,-472.52"/>
<text xml:space="preserve" text-anchor="start" x="70.62" y="-450.11" font-family="Inter" font-weight="bold" font-size="11.00" fill="#6c2eb7">Stage 2 · Deploy</text>
</g>
<!-- pub&#45;&gt;h2 -->
<g id="edge7" class="edge">
<title>pub&#45;&gt;h2</title>
<path fill="none" stroke="#7a6fa0" d="M113,-501.08C113,-495.54 113,-489.78 113,-484.26"/>
<polygon fill="#7a6fa0" stroke="#7a6fa0" points="116.5,-484.3 113,-474.3 109.5,-484.3 116.5,-484.3"/>
</g>
<!-- nexus -->
<g id="node5" class="node">
<title>nexus</title>
<path fill="#ffffff" stroke="#c98cec" d="M198.2,-405.6C198.2,-405.6 27.8,-405.6 27.8,-405.6 21.8,-405.6 15.8,-399.6 15.8,-393.6 15.8,-393.6 15.8,-355.68 15.8,-355.68 15.8,-349.68 21.8,-343.68 27.8,-343.68 27.8,-343.68 198.2,-343.68 198.2,-343.68 204.2,-343.68 210.2,-349.68 210.2,-355.68 210.2,-355.68 210.2,-393.6 210.2,-393.6 210.2,-399.6 204.2,-405.6 198.2,-405.6"/>
<text xml:space="preserve" text-anchor="middle" x="113" y="-382.19" font-family="Inter" font-size="11.00">Nexus deploy from tag</text>
<text xml:space="preserve" text-anchor="middle" x="113" y="-370.19" font-family="Inter" font-size="11.00">(+ Maven Central via</text>
<text xml:space="preserve" text-anchor="middle" x="113" y="-358.19" font-family="Inter" font-size="11.00">JReleaser for foundation)</text>
</g>
<!-- h2&#45;&gt;nexus -->
<g id="edge3" class="edge">
<title>h2&#45;&gt;nexus</title>
<path fill="none" stroke="#7a6fa0" d="M113,-434.33C113,-429.19 113,-423.37 113,-417.44"/>
<polygon fill="#7a6fa0" stroke="#7a6fa0" points="116.5,-417.58 113,-407.58 109.5,-417.58 116.5,-417.58"/>
</g>
<!-- gh -->
<g id="node6" class="node">
<title>gh</title>
<path fill="#ffffff" stroke="#c98cec" d="M198.2,-314.68C198.2,-314.68 27.8,-314.68 27.8,-314.68 21.8,-314.68 15.8,-308.68 15.8,-302.68 15.8,-302.68 15.8,-264.76 15.8,-264.76 15.8,-258.76 21.8,-252.76 27.8,-252.76 27.8,-252.76 198.2,-252.76 198.2,-252.76 204.2,-252.76 210.2,-258.76 210.2,-264.76 210.2,-264.76 210.2,-302.68 210.2,-302.68 210.2,-308.68 204.2,-314.68 198.2,-314.68"/>
<text xml:space="preserve" text-anchor="middle" x="113" y="-291.27" font-family="Inter" font-size="11.00">push tag + main</text>
<text xml:space="preserve" text-anchor="middle" x="113" y="-279.27" font-family="Inter" font-size="11.00">GitHub Release + notes</text>
<text xml:space="preserve" text-anchor="middle" x="113" y="-267.27" font-family="Inter" font-size="11.00">gh&#45;pages sites</text>
</g>
<!-- nexus&#45;&gt;gh -->
<g id="edge4" class="edge">
<title>nexus&#45;&gt;gh</title>
<path fill="none" stroke="#7a6fa0" d="M113,-343.54C113,-337.95 113,-332.02 113,-326.16"/>
<polygon fill="#7a6fa0" stroke="#7a6fa0" points="116.5,-326.61 113,-316.61 109.5,-326.61 116.5,-326.61"/>
</g>
<!-- h3 -->
<g id="node7" class="node">
<title>h3</title>
<path fill="#f3e9fb" stroke="#c98cec" d="M198.2,-223.76C198.2,-223.76 27.8,-223.76 27.8,-223.76 21.8,-223.76 15.8,-217.76 15.8,-211.76 15.8,-211.76 15.8,-197.84 15.8,-197.84 15.8,-191.84 21.8,-185.84 27.8,-185.84 27.8,-185.84 198.2,-185.84 198.2,-185.84 204.2,-185.84 210.2,-191.84 210.2,-197.84 210.2,-197.84 210.2,-211.76 210.2,-211.76 210.2,-217.76 204.2,-223.76 198.2,-223.76"/>
<text xml:space="preserve" text-anchor="start" x="66.5" y="-201.35" font-family="Inter" font-weight="bold" font-size="11.00" fill="#6c2eb7">Stage 3 · Cascade</text>
</g>
<!-- gh&#45;&gt;h3 -->
<g id="edge8" class="edge">
<title>gh&#45;&gt;h3</title>
<path fill="none" stroke="#7a6fa0" d="M113,-252.32C113,-246.78 113,-241.02 113,-235.5"/>
<polygon fill="#7a6fa0" stroke="#7a6fa0" points="116.5,-235.54 113,-225.54 109.5,-235.54 116.5,-235.54"/>
</g>
<!-- tc -->
<g id="node8" class="node">
<title>tc</title>
<path fill="#ffffff" stroke="#c98cec" d="M198.2,-156.84C198.2,-156.84 27.8,-156.84 27.8,-156.84 21.8,-156.84 15.8,-150.84 15.8,-144.84 15.8,-144.84 15.8,-118.92 15.8,-118.92 15.8,-112.92 21.8,-106.92 27.8,-106.92 27.8,-106.92 198.2,-106.92 198.2,-106.92 204.2,-106.92 210.2,-112.92 210.2,-118.92 210.2,-118.92 210.2,-144.84 210.2,-144.84 210.2,-150.84 204.2,-156.84 198.2,-156.84"/>
<text xml:space="preserve" text-anchor="middle" x="113" y="-133.43" font-family="Inter" font-size="11.00">TeamCity IkeFoundation</text>
<text xml:space="preserve" text-anchor="middle" x="113" y="-121.43" font-family="Inter" font-size="11.00">finish&#45;build triggers</text>
</g>
<!-- h3&#45;&gt;tc -->
<g id="edge5" class="edge">
<title>h3&#45;&gt;tc</title>
<path fill="none" stroke="#7a6fa0" d="M113,-185.54C113,-180.28 113,-174.37 113,-168.45"/>
<polygon fill="#7a6fa0" stroke="#7a6fa0" points="116.5,-168.75 113,-158.75 109.5,-168.75 116.5,-168.75"/>
</g>
<!-- repin -->
<g id="node9" class="node">
<title>repin</title>
<path fill="#ffffff" stroke="#c98cec" d="M198.2,-77.92C198.2,-77.92 27.8,-77.92 27.8,-77.92 21.8,-77.92 15.8,-71.92 15.8,-65.92 15.8,-65.92 15.8,-28 15.8,-28 15.8,-22 21.8,-16 27.8,-16 27.8,-16 198.2,-16 198.2,-16 204.2,-16 210.2,-22 210.2,-28 210.2,-28 210.2,-65.92 210.2,-65.92 210.2,-71.92 204.2,-77.92 198.2,-77.92"/>
<text xml:space="preserve" text-anchor="middle" x="113" y="-54.51" font-family="Inter" font-size="11.00">downstream repos release</text>
<text xml:space="preserve" text-anchor="middle" x="113" y="-42.51" font-family="Inter" font-size="11.00">in dependency order;</text>
<text xml:space="preserve" text-anchor="middle" x="113" y="-30.51" font-family="Inter" font-size="11.00">consumers repin</text>
</g>
<!-- tc&#45;&gt;repin -->
<g id="edge6" class="edge">
<title>tc&#45;&gt;repin</title>
<path fill="none" stroke="#7a6fa0" d="M113,-106.45C113,-101.09 113,-95.28 113,-89.46"/>
<polygon fill="#7a6fa0" stroke="#7a6fa0" points="116.5,-89.91 113,-79.91 109.5,-89.91 116.5,-89.91"/>
</g>
</g>
</svg>
