<?xml version="1.0" encoding="UTF-8"?>
<svg id="Layer_2" data-name="Layer 2" xmlns="http://www.w3.org/2000/svg" xmlns:xlink="http://www.w3.org/1999/xlink" viewBox="0 0 1363.88 207.72">
  <defs>
    <style>
      .cls-1 {
        fill: none;
        stroke: url(#New_Gradient_Swatch_2);
        stroke-miterlimit: 10;
        stroke-width: 12.61px;
      }
    </style>
    <linearGradient id="New_Gradient_Swatch_2" data-name="New Gradient Swatch 2" x1="918.06" y1="103.86" x2="1363.88" y2="103.86" gradientUnits="userSpaceOnUse">
      <stop offset="0" stop-color="#f4bfb9"/>
      <stop offset="1" stop-color="#c98cec"/>
    </linearGradient>
  </defs>
  <g id="Layer_1-2" data-name="Layer 1">
    <g>
      <g>
        <rect class="cls-1" x="924.37" y="6.31" width="433.2" height="195.11" rx="97.56" ry="97.56"/>
        <g>
          <path d="M1020.77,51.58h20.79v104.56h-20.79V51.58Z"/>
          <path d="M1280.87,137.98v18.16h-96.26V51.58h94.8v18.16h-74.01v23.58h65.22v18.16h-65.22v26.51h75.47Z"/>
          <path d="M1063.24,51.58h20.75v46.13l53.51-46.13h31.81l-49.8,43.07,53.16,61.49h-27.49l-41.4-47.88-19.78,17.11v30.77h-20.75V51.58Z"/>
        </g>
      </g>
      <g>
        <path d="M0,68.86h46.9c16.2,0,26.8,9.1,26.8,22.3s-10.2,22.2-26.5,22.2H14.2v25.5H0v-70ZM45.3,100.96c9.3,0,14-3.5,14-9.8s-4.8-9.9-14-9.9H14.2v19.7h31.1Z"/>
        <path d="M129.06,67.86c26.2-.1,47.3,13.4,46.9,36,.4,22.6-20.7,36.2-46.9,36-26.4.2-47.4-13.4-47-36-.4-22.6,20.6-36.1,47-36ZM130.06,127.46c17.5,0,31.5-8.4,31.5-23.6s-14-23.6-31.5-23.6h-2c-17.5,0-31.6,8.5-31.6,23.6s14.1,23.6,31.6,23.6h2Z"/>
        <path d="M300.53,68.86l-24,70h-16.8l-19.2-53.7-19.1,53.7h-16.9l-24-70h15.1l17.6,52.8,18.7-52.8h17.5l19,53.3,17.3-53.3h14.8Z"/>
        <path d="M385.12,126.46v12.4h-74.1v-70h73.1v12.4h-58.9v15.4h52.9v12.4h-52.9v17.4h59.9Z"/>
        <path d="M472.96,138.86h-14.2v-19.4c0-5.3-2-7-7.5-7h-36.3v26.4h-14.2v-70h49c14.8,0,24.9,8.2,24.9,19.3,0,8.4-5.6,15.1-13.1,17.1,8,.1,11.4,3.4,11.4,10.3v23.3ZM447.86,81.26h-32.9v18.8h32.9c7.7,0,12.4-3.6,12.4-9.5s-4.5-9.3-12.4-9.3Z"/>
        <path d="M566.25,126.46v12.4h-74.1v-70h73.1v12.4h-58.9v15.4h52.9v12.4h-52.9v17.4h59.9Z"/>
        <path d="M581.89,68.86h43.6c23.7,0,40.1,13.3,40.1,35s-16.4,35-40.1,35h-43.6v-70ZM623.19,126.46c18.1,0,28-7.8,28-22.6s-9.9-22.6-28-22.6h-27.1v45.2h27.1Z"/>
        <path d="M713.88,68.86h50.7c13.5,0,23.4,7.2,23.4,18.5,0,7.5-4.5,13-10.4,15.4,6.7,1.8,12.4,8.4,12.4,16.9,0,11.7-10,19.2-23.6,19.2h-52.5v-70ZM762.39,97.16c7.2,0,11.1-2.8,11.1-8s-3.9-7.9-11.1-7.9h-34.3v15.9h34.3ZM763.39,126.46c8,0,12.1-2.6,12.1-8.5,0-5.5-4.4-8.4-12.1-8.4h-35.3v16.9h35.3Z"/>
        <path d="M875.88,68.86l-34.7,39.7v30.3h-14.2v-30.3l-34.8-39.7h18.9l23.1,27,23.3-27h18.4Z"/>
      </g>
    </g>
  </g>
</svg>